<?xml version="1.0" encoding="UTF-8" standalone="no"?>
<svg
   xmlns:dc="http://purl.org/dc/elements/1.1/"
   xmlns:cc="http://creativecommons.org/ns#"
   xmlns:rdf="http://www.w3.org/1999/02/22-rdf-syntax-ns#"
   xmlns:svg="http://www.w3.org/2000/svg"
   xmlns="http://www.w3.org/2000/svg"
   xmlns:xlink="http://www.w3.org/1999/xlink"
   xmlns:sodipodi="http://sodipodi.sourceforge.net/DTD/sodipodi-0.dtd"
   xmlns:inkscape="http://www.inkscape.org/namespaces/inkscape"
   height="48px"
   id="svg5816"
   width="48px"
   version="1.1"
   inkscape:version="0.91 r"
   sodipodi:docname="security-chat.svg">
  <metadata
     id="metadata42">
    <rdf:RDF>
      <cc:Work
         rdf:about="">
        <dc:format>image/svg+xml</dc:format>
        <dc:type
           rdf:resource="http://purl.org/dc/dcmitype/StillImage" />
        <dc:title></dc:title>
      </cc:Work>
    </rdf:RDF>
  </metadata>
  <sodipodi:namedview
     pagecolor="#ffffff"
     bordercolor="#666666"
     borderopacity="1"
     objecttolerance="10"
     gridtolerance="10"
     guidetolerance="10"
     inkscape:pageopacity="0"
     inkscape:pageshadow="2"
     inkscape:window-width="1360"
     inkscape:window-height="716"
     id="namedview40"
     showgrid="false"
     inkscape:zoom="4.9166667"
     inkscape:cx="-1.1186441"
     inkscape:cy="32.135593"
     inkscape:window-x="0"
     inkscape:window-y="0"
     inkscape:window-maximized="1"
     inkscape:current-layer="svg5816" />
  <defs
     id="defs3">
    <radialGradient
       cx="605.71429"
       cy="486.64789"
       fx="605.71429"
       fy="486.64789"
       gradientTransform="matrix(-2.774389,0,0,1.969706,112.7623,-872.8854)"
       gradientUnits="userSpaceOnUse"
       id="radialGradient6719"
       r="117.14286"
       xlink:href="#linearGradient5060" />
    <linearGradient
       id="linearGradient5060">
      <stop
         id="stop5062"
         offset="0"
         style="stop-color:black;stop-opacity:1;" />
      <stop
         id="stop5064"
         offset="1"
         style="stop-color:black;stop-opacity:0;" />
    </linearGradient>
    <radialGradient
       cx="605.71429"
       cy="486.64789"
       fx="605.71429"
       fy="486.64789"
       gradientTransform="matrix(2.774389,0,0,1.969706,-1891.633,-872.8854)"
       gradientUnits="userSpaceOnUse"
       id="radialGradient6717"
       r="117.14286"
       xlink:href="#linearGradient5060" />
    <linearGradient
       id="linearGradient5048">
      <stop
         id="stop5050"
         offset="0"
         style="stop-color:black;stop-opacity:0;" />
      <stop
         id="stop5056"
         offset="0.5"
         style="stop-color:black;stop-opacity:1;" />
      <stop
         id="stop5052"
         offset="1"
         style="stop-color:black;stop-opacity:0;" />
    </linearGradient>
    <linearGradient
       gradientTransform="matrix(2.774389,0,0,1.969706,-1892.179,-872.8854)"
       gradientUnits="userSpaceOnUse"
       id="linearGradient6715"
       x1="302.85715"
       x2="302.85715"
       xlink:href="#linearGradient5048"
       y1="366.64789"
       y2="609.50507" />
    <linearGradient
       id="linearGradient29433">
      <stop
         id="stop29435"
         offset="0"
         style="stop-color:#000000;stop-opacity:1;" />
      <stop
         id="stop29437"
         offset="1"
         style="stop-color:#000000;stop-opacity:0;" />
    </linearGradient>
    <linearGradient
       id="linearGradient29418">
      <stop
         id="stop29420"
         offset="0.0000000"
         style="stop-color:#f5f5f5;stop-opacity:1.0000000;" />
      <stop
         id="stop29422"
         offset="1.0000000"
         style="stop-color:#e9e9e9;stop-opacity:1.0000000;" />
    </linearGradient>
    <linearGradient
       gradientTransform="matrix(1.007553,0,0,0.987647,-3.071923,0.274607)"
       gradientUnits="userSpaceOnUse"
       id="linearGradient29429"
       x1="26.011957"
       x2="39.037319"
       xlink:href="#linearGradient29418"
       y1="10.916001"
       y2="26.257807" />
    <radialGradient
       cx="29.496454"
       cy="27.645426"
       fx="29.496454"
       fy="27.645426"
       gradientTransform="matrix(1,0,0,0.346491,0,18.06653)"
       gradientUnits="userSpaceOnUse"
       id="radialGradient29439"
       r="11.515739"
       xlink:href="#linearGradient29433" />
    <linearGradient
       gradientTransform="matrix(-0.977228,0,0,0.995878,50.60272,9.115637)"
       gradientUnits="userSpaceOnUse"
       id="linearGradient29443"
       x1="35.003674"
       x2="27.273300"
       xlink:href="#linearGradient29418"
       y1="10.957423"
       y2="24.143761" />
    <linearGradient
       gradientTransform="matrix(2.774389,0,0,1.969706,-1892.179,-872.8854)"
       gradientUnits="userSpaceOnUse"
       id="linearGradient6873"
       x1="302.85715"
       x2="302.85715"
       xlink:href="#linearGradient5048"
       y1="366.64789"
       y2="609.50507" />
    <radialGradient
       cx="605.71429"
       cy="486.64789"
       fx="605.71429"
       fy="486.64789"
       gradientTransform="matrix(2.774389,0,0,1.969706,-1891.633,-872.8854)"
       gradientUnits="userSpaceOnUse"
       id="radialGradient6875"
       r="117.14286"
       xlink:href="#linearGradient5060" />
    <radialGradient
       cx="605.71429"
       cy="486.64789"
       fx="605.71429"
       fy="486.64789"
       gradientTransform="matrix(-2.774389,0,0,1.969706,112.7623,-872.8854)"
       gradientUnits="userSpaceOnUse"
       id="radialGradient6877"
       r="117.14286"
       xlink:href="#linearGradient5060" />
  </defs>
  <g
     id="layer1"
     transform="matrix(-1,0,0,1,52.772993,-2.7178368)">
    <g
       id="g6707"
       style="opacity:0.62886598"
       transform="matrix(0.01518738,0,0,0.02086758,32.5082,31.9036)">
      <rect
         height="478.35718"
         id="rect6709"
         style="color:#000000;display:inline;overflow:visible;visibility:visible;opacity:0.40206185;fill:url(#linearGradient6715);fill-opacity:1;fill-rule:nonzero;stroke:none;stroke-width:1;stroke-linecap:round;stroke-linejoin:miter;stroke-miterlimit:4;stroke-dasharray:none;stroke-dashoffset:0;stroke-opacity:1;marker:none;marker-start:none;marker-mid:none;marker-end:none"
         width="1339.6335"
         x="-1559.2523"
         y="-150.69685" />
      <path
         d="m -219.61876,-150.68038 c 0,0 0,478.33079 0,478.33079 142.874166,0.90045 345.40022,-107.16966 345.40014,-239.196175 0,-132.026537 -159.436816,-239.134595 -345.40014,-239.134615 z"
         id="path6711"
         style="color:#000000;display:inline;overflow:visible;visibility:visible;opacity:0.40206185;fill:url(#radialGradient6717);fill-opacity:1;fill-rule:nonzero;stroke:none;stroke-width:1;stroke-linecap:round;stroke-linejoin:miter;stroke-miterlimit:4;stroke-dasharray:none;stroke-dashoffset:0;stroke-opacity:1;marker:none;marker-start:none;marker-mid:none;marker-end:none"
         inkscape:connector-curvature="0" />
      <path
         d="m -1559.2523,-150.68038 c 0,0 0,478.33079 0,478.33079 -142.8742,0.90045 -345.4002,-107.16966 -345.4002,-239.196175 0,-132.026537 159.4368,-239.134595 345.4002,-239.134615 z"
         id="path6713"
         style="color:#000000;display:inline;overflow:visible;visibility:visible;opacity:0.40206185;fill:url(#radialGradient6719);fill-opacity:1;fill-rule:nonzero;stroke:none;stroke-width:1;stroke-linecap:round;stroke-linejoin:miter;stroke-miterlimit:4;stroke-dasharray:none;stroke-dashoffset:0;stroke-opacity:1;marker:none;marker-start:none;marker-mid:none;marker-end:none"
         inkscape:connector-curvature="0" />
    </g>
    <g
       id="g6865"
       transform="matrix(0.01518738,0,0,0.02086758,42.2582,21.9036)">
      <rect
         height="478.35718"
         id="rect6867"
         style="color:#000000;display:inline;overflow:visible;visibility:visible;opacity:0.40206185;fill:url(#linearGradient6873);fill-opacity:1;fill-rule:nonzero;stroke:none;stroke-width:1;stroke-linecap:round;stroke-linejoin:miter;stroke-miterlimit:4;stroke-dasharray:none;stroke-dashoffset:0;stroke-opacity:1;marker:none;marker-start:none;marker-mid:none;marker-end:none"
         width="1339.6335"
         x="-1559.2523"
         y="-150.69685" />
      <path
         d="m -219.61876,-150.68038 c 0,0 0,478.33079 0,478.33079 142.874166,0.90045 345.40022,-107.16966 345.40014,-239.196175 0,-132.026537 -159.436816,-239.134595 -345.40014,-239.134615 z"
         id="path6869"
         style="color:#000000;display:inline;overflow:visible;visibility:visible;opacity:0.40206185;fill:url(#radialGradient6875);fill-opacity:1;fill-rule:nonzero;stroke:none;stroke-width:1;stroke-linecap:round;stroke-linejoin:miter;stroke-miterlimit:4;stroke-dasharray:none;stroke-dashoffset:0;stroke-opacity:1;marker:none;marker-start:none;marker-mid:none;marker-end:none"
         inkscape:connector-curvature="0" />
      <path
         d="m -1559.2523,-150.68038 c 0,0 0,478.33079 0,478.33079 -142.8742,0.90045 -345.4002,-107.16966 -345.4002,-239.196175 0,-132.026537 159.4368,-239.134595 345.4002,-239.134615 z"
         id="path6871"
         style="color:#000000;display:inline;overflow:visible;visibility:visible;opacity:0.40206185;fill:url(#radialGradient6877);fill-opacity:1;fill-rule:nonzero;stroke:none;stroke-width:1;stroke-linecap:round;stroke-linejoin:miter;stroke-miterlimit:4;stroke-dasharray:none;stroke-dashoffset:0;stroke-opacity:1;marker:none;marker-start:none;marker-mid:none;marker-end:none"
         inkscape:connector-curvature="0" />
    </g>
    <path
       d="m 41.012194,27.645426 a 11.515739,3.9901045 0 1 1 -23.031479,0 11.515739,3.9901045 0 1 1 23.031479,0 z"
       id="path29431"
       style="color:#000000;display:block;overflow:visible;visibility:visible;opacity:0.12025314;fill:url(#radialGradient29439);fill-opacity:1;fill-rule:nonzero;stroke:none;stroke-width:1;stroke-linecap:butt;stroke-linejoin:miter;stroke-miterlimit:4;stroke-dashoffset:0;stroke-opacity:1;marker:none;marker-start:none;marker-mid:none;marker-end:none"
       transform="matrix(1.372807,0,0,1.09241,-10.33736,0.235623)"
       inkscape:connector-curvature="0" />
    <path
       d="m 18.401556,6.5708568 c -1.071319,0 -1.920649,0.863414 -1.920649,1.9135661 l 0,15.0616161 c 0,1.050152 0.84933,1.882702 1.920649,1.882702 l 14.13723,0 c 0.856319,1.103703 2.522718,2.893206 6.517611,4.382684 -1.778619,-2.048927 -1.774829,-3.440361 -1.574302,-4.382684 l 2.896716,0 c 1.071317,0 1.952132,-0.83255 1.952134,-1.882702 l 0,-15.0616161 c 0,-1.0501519 -0.880817,-1.9135661 -1.952134,-1.9135661 l -21.977255,0 z"
       id="rect29408"
       style="color:#000000;display:block;overflow:visible;visibility:visible;fill:url(#linearGradient29429);fill-opacity:1;fill-rule:nonzero;stroke:#787878;stroke-width:0.99999982;stroke-linecap:butt;stroke-linejoin:miter;stroke-miterlimit:4;stroke-dashoffset:0;stroke-opacity:1;marker:none;marker-start:none;marker-mid:none;marker-end:none"
       inkscape:connector-curvature="0" />
    <path
       d="m 18.8131,7.5755336 c -0.918159,0 -1.292512,0.4369312 -1.292512,1.3369494 l 0,13.867992 c 0,0.900018 0.727906,1.613543 1.646065,1.613543 l 13.883882,0 c 0.733896,0.945914 1.30343,1.974506 3.515014,3.099519 -0.413172,-0.897374 -0.06495,-2.151356 0.216504,-3.099519 l 3.492742,0 c 0.918157,0 1.016448,-0.359972 1.01645,-1.25999 l 0,-14.221545 c 0,-0.900018 -0.249816,-1.2864417 -1.167973,-1.2864417 L 18.8131,7.5755336 Z"
       id="path29445"
       style="color:#000000;display:block;overflow:visible;visibility:visible;fill:none;fill-opacity:1;fill-rule:nonzero;stroke:#ffffff;stroke-width:0.9999994;stroke-linecap:butt;stroke-linejoin:miter;stroke-miterlimit:4;stroke-dashoffset:0;stroke-opacity:1;marker:none;marker-start:none;marker-mid:none;marker-end:none"
       inkscape:connector-curvature="0" />
    <path
       d="m 29.775522,15.46436 c 1.039074,0 1.862841,0.87061 1.862841,1.929514 l 0,15.187139 c 0,1.058904 -0.823767,1.898393 -1.862841,1.898393 l -13.711728,0 c -0.830545,1.112901 -2.446789,2.917318 -6.3214426,4.419209 1.7250846,-2.066003 1.7214086,-3.469033 1.5269176,-4.419209 l -2.8095296,0 c -1.0390725,0 -1.8933767,-0.839489 -1.8933787,-1.898393 l 0,-15.187139 c 0,-1.058904 0.8543062,-1.929514 1.8933787,-1.929514 l 21.3157826,0 z"
       id="path29441"
       style="color:#000000;display:block;overflow:visible;visibility:visible;fill:url(#linearGradient29443);fill-opacity:1;fill-rule:nonzero;stroke:#787878;stroke-width:0.99999946;stroke-linecap:butt;stroke-linejoin:miter;stroke-miterlimit:4;stroke-dashoffset:0;stroke-opacity:1;marker:none;marker-start:none;marker-mid:none;marker-end:none"
       inkscape:connector-curvature="0" />
    <path
       d="m 29.389156,16.452895 c 0.942453,0 1.235052,0.461354 1.235052,1.421794 l 0,14.204247 c 0,0.96044 -0.242092,1.368314 -1.184545,1.368314 l -13.901437,0 c -0.753315,1.009416 -2.067746,2.595538 -3.511295,3.250666 0.402999,-1.166785 0.248141,-2.136306 0.172751,-3.250666 l -3.4069096,0 c -0.9424523,0 -1.212241,-0.407874 -1.2122428,-1.368314 l 0,-14.077978 c 0,-0.96044 0.2697905,-1.548063 1.2122428,-1.548063 l 20.5963836,0 z"
       id="path29449"
       style="color:#000000;display:block;overflow:visible;visibility:visible;fill:none;fill-opacity:1;fill-rule:nonzero;stroke:#ffffff;stroke-width:0.99999988;stroke-linecap:butt;stroke-linejoin:miter;stroke-miterlimit:4;stroke-dashoffset:0;stroke-opacity:1;marker:none;marker-start:none;marker-mid:none;marker-end:none"
       inkscape:connector-curvature="0" />
  </g>
  <g
     id="Multicolor"
     transform="matrix(0.318838,0.31785696,-0.31785696,0.318838,19.301974,2.91398)">
    <g
       id="g3444">
      <path
         id="path3446"
         style="fill:#facb1b"
         d="M 75,23 49.792,48.208 C 47.668,47.44 45.388,47 43,47 31.954,47 23,55.954 23,67 c 0,11.046 8.954,20 20,20 11.046,0 20,-8.954 20,-20 0,-2.388 -0.44,-4.668 -1.208,-6.792 L 63,59 l 0,-8 8,0 0,-8 8,0 0,-8 8,0 0,-12 -12,0 z M 47.595,76.204 c -0.2,0.955 -0.869,1.744 -1.777,2.1 C 42.187,79.726 37.9,78.97 34.965,76.035 32.03,73.101 31.274,68.812 32.697,65.18 c 0.356,-0.909 1.146,-1.577 2.102,-1.776 0.956,-0.199 1.946,0.098 2.636,0.788 l 9.375,9.375 c 0.69,0.69 0.985,1.682 0.785,2.637 z"
         inkscape:connector-curvature="0" />
      <path
         id="path3448"
         style="fill:#fbe158"
         d="M 87,23 75,23 49.792,48.208 C 47.668,47.44 45.388,47 43,47 31.954,47 23,55.954 23,67 c 0,5.701 2.397,10.832 6.224,14.475 l 5.602,-5.602 C 32.017,72.944 31.3,68.749 32.698,65.18 c 0.356,-0.909 1.146,-1.577 2.102,-1.776 0.956,-0.199 1.946,0.098 2.636,0.788 L 41.972,68.728 87,23.698 87,23 Z"
         inkscape:connector-curvature="0" />
      <path
         id="path3450"
         style="fill:#f3b607"
         d="m 55,49 c -0.552,-0.552 -0.552,-1.448 0,-2 l 22,-22 4,0 -24,24 c -0.552,0.552 -1.448,0.552 -2,0 z"
         inkscape:connector-curvature="0" />
    </g>
  </g>
</svg>
